<mxfile host="app.diagrams.net" modified="2024-04-29T03:03:43.455Z" agent="Mozilla/5.0 (Windows NT 10.0; Win64; x64; rv:125.0) Gecko/20100101 Firefox/125.0" etag="C_fD51Lz2j87gnW-mGUI" version="24.3.1" type="device">
  <diagram name="Page-1" id="c9db0220-8083-56f3-ca83-edcdcd058819">
    <mxGraphModel dx="2551" dy="1356" grid="1" gridSize="10" guides="1" tooltips="1" connect="1" arrows="1" fold="1" page="1" pageScale="1.5" pageWidth="1600" pageHeight="900" background="none" math="0" shadow="0">
      <root>
        <mxCell id="0" style=";html=1;" />
        <mxCell id="1" style=";html=1;" parent="0" />
        <mxCell id="3d76a8aef4d5c911-1" value="" style="html=1;shadow=0;dashed=0;shape=mxgraph.bootstrap.rect;fillColor=#222222;strokeColor=none;whiteSpace=wrap;rounded=0;fontSize=12;fontColor=#222222;align=center;" parent="1" vertex="1">
          <mxGeometry width="2400.01" height="60" as="geometry" />
        </mxCell>
        <mxCell id="IO1QdCN4fKJddP44S_Fw-7" value="" style="html=1;shadow=0;dashed=0;shape=mxgraph.bootstrap.rect;fillColor=#4D4D4D;strokeColor=none;whiteSpace=wrap;rounded=0;fontSize=12;fontColor=#000000;align=center;" vertex="1" parent="1">
          <mxGeometry y="60" width="2400.01" height="40" as="geometry" />
        </mxCell>
        <mxCell id="IO1QdCN4fKJddP44S_Fw-14" value="仪表板" style="html=1;shadow=0;dashed=0;fillColor=none;strokeColor=none;shape=mxgraph.bootstrap.rect;fontColor=#999999;whiteSpace=wrap;align=left;" vertex="1" parent="1">
          <mxGeometry x="50" y="60" width="100" height="40" as="geometry" />
        </mxCell>
        <mxCell id="IO1QdCN4fKJddP44S_Fw-16" value="Yifan Xu 毕业设计 @天津工业大学 " style="html=1;shadow=0;dashed=0;shape=mxgraph.bootstrap.rect;fillColor=#E6E6E6;strokeColor=none;whiteSpace=wrap;rounded=0;fontSize=12;fontColor=#000000;align=center;" vertex="1" parent="1">
          <mxGeometry y="1120" width="2400.01" height="80" as="geometry" />
        </mxCell>
        <mxCell id="IO1QdCN4fKJddP44S_Fw-34" value="您好，又是新的一天！" style="text;html=1;align=left;verticalAlign=middle;resizable=0;points=[];autosize=1;strokeColor=none;fillColor=none;fontSize=70;" vertex="1" parent="1">
          <mxGeometry x="140" y="160" width="720" height="100" as="geometry" />
        </mxCell>
        <mxCell id="IO1QdCN4fKJddP44S_Fw-43" value="&lt;b&gt;&lt;font style=&quot;font-size: 20px&quot;&gt;仅用于测试&lt;/font&gt;&lt;/b&gt;&lt;br style=&quot;font-size: 14px&quot;&gt;本系统仍在开发中，目前仅用于测试！" style="html=1;shadow=0;dashed=0;shape=mxgraph.bootstrap.rrect;rSize=5;strokeColor=#188C9C;html=1;whiteSpace=wrap;fillColor=#1CA5B8;fontColor=#ffffff;verticalAlign=bottom;align=left;spacing=20;spacingBottom=0;fontSize=14;" vertex="1" parent="1">
          <mxGeometry x="150" y="640" width="300" height="270" as="geometry" />
        </mxCell>
        <mxCell id="IO1QdCN4fKJddP44S_Fw-44" value="网站信息" style="html=1;shadow=0;dashed=0;shape=mxgraph.bootstrap.topButton;rSize=5;perimeter=none;whiteSpace=wrap;fillColor=#1BA0B2;strokeColor=#188C9C;fontColor=#ffffff;resizeWidth=1;fontSize=18;align=left;spacing=20;" vertex="1" parent="IO1QdCN4fKJddP44S_Fw-43">
          <mxGeometry width="300" height="50" relative="1" as="geometry" />
        </mxCell>
        <mxCell id="IO1QdCN4fKJddP44S_Fw-46" value="&lt;b&gt;本站已运行 5h 13m 20s&lt;br&gt;&lt;/b&gt;" style="html=1;shadow=0;dashed=0;shape=mxgraph.bootstrap.rrect;rSize=5;strokeColor=#188C9C;html=1;whiteSpace=wrap;fillColor=#1CA5B8;fontColor=#ffffff;verticalAlign=bottom;align=left;spacing=20;spacingBottom=0;fontSize=14;" vertex="1" parent="1">
          <mxGeometry x="490" y="640" width="300" height="270" as="geometry" />
        </mxCell>
        <mxCell id="IO1QdCN4fKJddP44S_Fw-47" value="网站信息" style="html=1;shadow=0;dashed=0;shape=mxgraph.bootstrap.topButton;rSize=5;perimeter=none;whiteSpace=wrap;fillColor=#1BA0B2;strokeColor=#188C9C;fontColor=#ffffff;resizeWidth=1;fontSize=18;align=left;spacing=20;" vertex="1" parent="IO1QdCN4fKJddP44S_Fw-46">
          <mxGeometry width="300" height="50" relative="1" as="geometry" />
        </mxCell>
        <mxCell id="IO1QdCN4fKJddP44S_Fw-50" value="您还未登录" style="text;html=1;align=left;verticalAlign=middle;resizable=0;points=[];autosize=1;strokeColor=none;fillColor=none;fontSize=50;" vertex="1" parent="1">
          <mxGeometry x="1320" y="160" width="270" height="70" as="geometry" />
        </mxCell>
        <mxCell id="IO1QdCN4fKJddP44S_Fw-51" value="您可以&amp;nbsp; &lt;font color=&quot;#009999&quot;&gt;注册&amp;nbsp; &lt;/font&gt;或&amp;nbsp;&lt;font color=&quot;#009999&quot;&gt; 登录&lt;br&gt;&lt;/font&gt;" style="text;html=1;align=left;verticalAlign=middle;resizable=0;points=[];autosize=1;strokeColor=none;fillColor=none;fontSize=35;" vertex="1" parent="1">
          <mxGeometry x="1320" y="320" width="360" height="60" as="geometry" />
        </mxCell>
        <mxCell id="3d76a8aef4d5c911-2" value="GTMS" style="html=1;shadow=0;dashed=0;fillColor=none;strokeColor=none;shape=mxgraph.bootstrap.rect;fontColor=#999999;fontSize=20;whiteSpace=wrap;align=left;" parent="1" vertex="1">
          <mxGeometry x="50" width="100" height="60" as="geometry" />
        </mxCell>
        <mxCell id="3d76a8aef4d5c911-3" value="&lt;font style=&quot;font-size: 20px;&quot;&gt;仪表板&lt;/font&gt;" style="html=1;shadow=0;dashed=0;shape=mxgraph.bootstrap.rect;fillColor=#000000;strokeColor=none;fontColor=#ffffff;spacingRight=0;whiteSpace=wrap;" parent="1" vertex="1">
          <mxGeometry x="150" width="100" height="60" as="geometry" />
        </mxCell>
        <mxCell id="IO1QdCN4fKJddP44S_Fw-6" value="&lt;font style=&quot;font-size: 15px;&quot;&gt;项目浏览&lt;/font&gt;" style="html=1;shadow=0;dashed=0;fillColor=none;strokeColor=none;shape=mxgraph.bootstrap.rect;fontColor=#999999;whiteSpace=wrap;" vertex="1" parent="1">
          <mxGeometry x="250" width="100" height="60" as="geometry" />
        </mxCell>
        <mxCell id="3d76a8aef4d5c911-7" value="&lt;font style=&quot;font-size: 15px;&quot;&gt;我的项目&lt;/font&gt;" style="html=1;shadow=0;dashed=0;fillColor=none;strokeColor=none;shape=mxgraph.bootstrap.rect;fontColor=#999999;whiteSpace=wrap;" parent="1" vertex="1">
          <mxGeometry x="350" width="100" height="60" as="geometry" />
        </mxCell>
        <mxCell id="IO1QdCN4fKJddP44S_Fw-2" value="&lt;font style=&quot;font-size: 15px;&quot;&gt;私信&lt;/font&gt;" style="html=1;shadow=0;dashed=0;fillColor=none;strokeColor=none;shape=mxgraph.bootstrap.rect;fontColor=#999999;whiteSpace=wrap;" vertex="1" parent="1">
          <mxGeometry x="450" width="100" height="60" as="geometry" />
        </mxCell>
        <mxCell id="IO1QdCN4fKJddP44S_Fw-57" value="登录" style="html=1;shadow=0;dashed=0;fillColor=none;strokeColor=none;shape=mxgraph.bootstrap.rect;fontColor=#999999;whiteSpace=wrap;fontSize=15;" vertex="1" parent="1">
          <mxGeometry x="2250" width="100" height="60" as="geometry" />
        </mxCell>
        <mxCell id="IO1QdCN4fKJddP44S_Fw-58" value="&lt;div&gt;这里是游戏汉化翻译管理系统的仪表板！&lt;/div&gt;&lt;div align=&quot;left&quot;&gt;登陆后，您可以在此处查看所有信息。&lt;/div&gt;" style="text;html=1;align=center;verticalAlign=middle;resizable=0;points=[];autosize=1;strokeColor=none;fillColor=none;fontSize=35;" vertex="1" parent="1">
          <mxGeometry x="140" y="320" width="650" height="100" as="geometry" />
        </mxCell>
      </root>
    </mxGraphModel>
  </diagram>
</mxfile>
